<mxfile host="65bd71144e" pages="2">
    <diagram name="Page-1" id="9f46799a-70d6-7492-0946-bef42562c5a5">
        <mxGraphModel dx="2577" dy="865" grid="1" gridSize="10" guides="1" tooltips="1" connect="1" arrows="1" fold="1" page="1" pageScale="1" pageWidth="1100" pageHeight="850" background="none" math="0" shadow="0">
            <root>
                <mxCell id="0"/>
                <mxCell id="1" parent="0"/>
                <mxCell id="BvlduwWM6QDGMNci_ojr-10" value="" style="shape=step;perimeter=stepPerimeter;whiteSpace=wrap;html=1;fixedSize=1;" parent="1" vertex="1">
                    <mxGeometry x="1040" y="680" width="120" height="80" as="geometry"/>
                </mxCell>
                <mxCell id="BvlduwWM6QDGMNci_ojr-11" value="Motor" style="swimlane;whiteSpace=wrap;html=1;startSize=23;" parent="1" vertex="1">
                    <mxGeometry x="-740" y="50" width="400" height="550" as="geometry"/>
                </mxCell>
                <mxCell id="35DiJFL7X5QgOkixbl-2-12" value="motor_controller" style="swimlane;fontStyle=0;childLayout=stackLayout;horizontal=1;startSize=26;fillColor=none;horizontalStack=0;resizeParent=1;resizeParentMax=0;resizeLast=0;collapsible=1;marginBottom=0;whiteSpace=wrap;html=1;" parent="BvlduwWM6QDGMNci_ojr-11" vertex="1">
                    <mxGeometry x="10" y="31" width="280" height="208" as="geometry"/>
                </mxCell>
                <mxCell id="35DiJFL7X5QgOkixbl-2-14" value="init_motor()" style="text;strokeColor=none;fillColor=none;align=left;verticalAlign=top;spacingLeft=4;spacingRight=4;overflow=hidden;rotatable=0;points=[[0,0.5],[1,0.5]];portConstraint=eastwest;whiteSpace=wrap;html=1;" parent="35DiJFL7X5QgOkixbl-2-12" vertex="1">
                    <mxGeometry y="26" width="280" height="26" as="geometry"/>
                </mxCell>
                <mxCell id="35DiJFL7X5QgOkixbl-2-15" value="motor_enable();" style="text;strokeColor=none;fillColor=none;align=left;verticalAlign=top;spacingLeft=4;spacingRight=4;overflow=hidden;rotatable=0;points=[[0,0.5],[1,0.5]];portConstraint=eastwest;whiteSpace=wrap;html=1;" parent="35DiJFL7X5QgOkixbl-2-12" vertex="1">
                    <mxGeometry y="52" width="280" height="26" as="geometry"/>
                </mxCell>
                <mxCell id="35DiJFL7X5QgOkixbl-2-22" value="motor_disable();&amp;nbsp;" style="text;strokeColor=none;fillColor=none;align=left;verticalAlign=top;spacingLeft=4;spacingRight=4;overflow=hidden;rotatable=0;points=[[0,0.5],[1,0.5]];portConstraint=eastwest;whiteSpace=wrap;html=1;" parent="35DiJFL7X5QgOkixbl-2-12" vertex="1">
                    <mxGeometry y="78" width="280" height="26" as="geometry"/>
                </mxCell>
                <mxCell id="35DiJFL7X5QgOkixbl-2-23" value="motor_set_torque();" style="text;strokeColor=none;fillColor=none;align=left;verticalAlign=top;spacingLeft=4;spacingRight=4;overflow=hidden;rotatable=0;points=[[0,0.5],[1,0.5]];portConstraint=eastwest;whiteSpace=wrap;html=1;" parent="35DiJFL7X5QgOkixbl-2-12" vertex="1">
                    <mxGeometry y="104" width="280" height="26" as="geometry"/>
                </mxCell>
                <mxCell id="35DiJFL7X5QgOkixbl-2-25" value="motor_set_current();" style="text;strokeColor=none;fillColor=none;align=left;verticalAlign=top;spacingLeft=4;spacingRight=4;overflow=hidden;rotatable=0;points=[[0,0.5],[1,0.5]];portConstraint=eastwest;whiteSpace=wrap;html=1;" parent="35DiJFL7X5QgOkixbl-2-12" vertex="1">
                    <mxGeometry y="130" width="280" height="26" as="geometry"/>
                </mxCell>
                <mxCell id="35DiJFL7X5QgOkixbl-2-26" value="motor_set_velocity();" style="text;strokeColor=none;fillColor=none;align=left;verticalAlign=top;spacingLeft=4;spacingRight=4;overflow=hidden;rotatable=0;points=[[0,0.5],[1,0.5]];portConstraint=eastwest;whiteSpace=wrap;html=1;" parent="35DiJFL7X5QgOkixbl-2-12" vertex="1">
                    <mxGeometry y="156" width="280" height="26" as="geometry"/>
                </mxCell>
                <mxCell id="35DiJFL7X5QgOkixbl-2-24" value="update(); // llop" style="text;strokeColor=none;fillColor=none;align=left;verticalAlign=top;spacingLeft=4;spacingRight=4;overflow=hidden;rotatable=0;points=[[0,0.5],[1,0.5]];portConstraint=eastwest;whiteSpace=wrap;html=1;" parent="35DiJFL7X5QgOkixbl-2-12" vertex="1">
                    <mxGeometry y="182" width="280" height="26" as="geometry"/>
                </mxCell>
                <mxCell id="BvlduwWM6QDGMNci_ojr-13" value="Motor Driver: drv8353S" style="swimlane;whiteSpace=wrap;html=1;startSize=23;" parent="1" vertex="1">
                    <mxGeometry x="-330" y="50" width="400" height="270" as="geometry"/>
                </mxCell>
                <mxCell id="35DiJFL7X5QgOkixbl-2-17" value="Main" style="swimlane;fontStyle=0;childLayout=stackLayout;horizontal=1;startSize=26;fillColor=none;horizontalStack=0;resizeParent=1;resizeParentMax=0;resizeLast=0;collapsible=1;marginBottom=0;whiteSpace=wrap;html=1;" parent="1" vertex="1">
                    <mxGeometry x="-1070" y="50" width="280" height="104" as="geometry"/>
                </mxCell>
                <mxCell id="35DiJFL7X5QgOkixbl-2-18" value="+ field: type" style="text;strokeColor=none;fillColor=none;align=left;verticalAlign=top;spacingLeft=4;spacingRight=4;overflow=hidden;rotatable=0;points=[[0,0.5],[1,0.5]];portConstraint=eastwest;whiteSpace=wrap;html=1;" parent="35DiJFL7X5QgOkixbl-2-17" vertex="1">
                    <mxGeometry y="26" width="280" height="26" as="geometry"/>
                </mxCell>
                <mxCell id="35DiJFL7X5QgOkixbl-2-19" value="+ field: type" style="text;strokeColor=none;fillColor=none;align=left;verticalAlign=top;spacingLeft=4;spacingRight=4;overflow=hidden;rotatable=0;points=[[0,0.5],[1,0.5]];portConstraint=eastwest;whiteSpace=wrap;html=1;" parent="35DiJFL7X5QgOkixbl-2-17" vertex="1">
                    <mxGeometry y="52" width="280" height="26" as="geometry"/>
                </mxCell>
                <mxCell id="35DiJFL7X5QgOkixbl-2-20" value="+ field: type" style="text;strokeColor=none;fillColor=none;align=left;verticalAlign=top;spacingLeft=4;spacingRight=4;overflow=hidden;rotatable=0;points=[[0,0.5],[1,0.5]];portConstraint=eastwest;whiteSpace=wrap;html=1;" parent="35DiJFL7X5QgOkixbl-2-17" vertex="1">
                    <mxGeometry y="78" width="280" height="26" as="geometry"/>
                </mxCell>
                <mxCell id="BvlduwWM6QDGMNci_ojr-14" value="Motor" style="swimlane;whiteSpace=wrap;html=1;startSize=23;" parent="1" vertex="1">
                    <mxGeometry x="-1040" y="300" width="280" height="280" as="geometry"/>
                </mxCell>
            </root>
        </mxGraphModel>
    </diagram>
    <diagram id="jV2mYvifRSu4BIT2kK3j" name="Page-2">
        <mxGraphModel grid="1" page="1" gridSize="10" guides="1" tooltips="1" connect="1" arrows="1" fold="1" pageScale="1" pageWidth="1100" pageHeight="850" math="0" shadow="0">
            <root>
                <mxCell id="0"/>
                <mxCell id="1" parent="0"/>
            </root>
        </mxGraphModel>
    </diagram>
</mxfile>